Coordinates
version=1
nRows=19
nColumns=34
inDegrees=yes

Units are S.I. units (second, meters, Newtons, ...)
If the header above contains a line with 'inDegrees', this indicates whether rotational values are in degrees (yes) or radians (no).

endheader
time	pelvis_tilt	pelvis_list	pelvis_rotation	pelvis_tx	pelvis_ty	pelvis_tz	hip_flexion_r	hip_adduction_r	hip_rotation_r	knee_angle_r	ankle_angle_r	subtalar_angle_r	mtp_angle_r	hip_flexion_l	hip_adduction_l	hip_rotation_l	knee_angle_l	ankle_angle_l	subtalar_angle_l	mtp_angle_l	lumbar_extension	lumbar_bending	lumbar_rotation	arm_flex_r	arm_add_r	arm_rot_r	elbow_flex_r	pro_sup_r	arm_flex_l	arm_add_l	arm_rot_l	elbow_flex_l	pro_sup_l
      6.01666670	     10.08761200	     -8.78392819	    -35.94290350	      3.94463902	      1.01694826	      1.32184210	      2.67942256	     -2.34708844	     -5.60227205	     18.20840199	     13.51220008	      5.18835546	      0.00000000	      7.74728399	      5.20711537	     -5.02288867	     23.60854926	     10.35652914	     -8.00291259	      0.00000000	     -7.42297588	     -4.35103173	      2.26339828	      8.89533081	    -14.00739596	     20.32683447	     94.83377186	    119.74817918	     -7.15672621	    -19.62682498	     17.19827547	    101.03200141	    119.74817918
      6.03333330	      9.58095988	     -9.41773970	    -36.16535584	      3.94395193	      1.01688072	      1.32109034	      2.95053402	     -1.73568265	     -6.05621091	     18.39581080	     11.54443491	      6.40046796	      0.00000000	      8.26676591	      4.34977032	     -4.70383311	     24.46160133	     10.51677205	     -8.29497945	      0.00000000	     -7.75831470	     -3.55199664	      2.21561185	      9.55806668	    -13.84991106	     19.93848802	     94.97801470	    119.74817918	     -6.83109991	    -19.77464798	     17.67364812	    100.67317241	    119.74817918
      6.05000000	      9.30677501	     -9.79062217	    -36.57760792	      3.94264886	      1.01709581	      1.32037859	      3.35741137	     -1.45668917	     -6.25436405	     18.87208431	      9.63893502	      7.17775581	      0.00000000	      8.48536493	      3.89300442	     -4.46136851	     24.74011458	     10.46396599	     -8.39061705	      0.00000000	     -8.24046018	     -3.19409102	      2.17222808	     10.37455632	    -13.55221241	     19.59028819	     94.74158038	    119.74817918	     -6.65437493	    -20.18538078	     17.86694091	    100.44574756	    119.74817918
      6.06666670	      8.50392681	    -10.61204666	    -36.91847547	      3.94100334	      1.01722261	      1.31942389	      3.85566257	     -0.51004386	     -7.41367678	     19.22716987	      7.97085899	      8.20971113	      0.00000000	      9.29970351	      2.61215321	     -4.27330857	     25.79813828	     10.23472785	     -8.79369551	      0.00000000	     -8.56809926	     -1.99602441	      2.12884183	     11.16172412	    -13.45332741	     19.78338655	     94.20523211	    119.74817918	     -6.08554159	    -20.44150206	     18.78839038	     99.65843773	    119.74817918
      6.08333330	      7.90779514	    -11.20464504	    -37.29020953	      3.93978188	      1.01855196	      1.31872962	      4.44305015	     -0.02485096	     -9.00309968	     19.83467300	      6.08404776	      9.53841073	      0.00000000	      9.92204127	      1.67821194	     -4.22347119	     26.56726425	      9.50168952	     -9.56346375	      0.00000000	     -8.90400411	     -1.30349458	      2.17016467	     11.67139629	    -13.05163876	     19.81376952	     93.50739948	    119.74817918	     -5.63995791	    -20.44986313	     19.48257181	     99.25309655	    119.74817918
      6.10000000	      7.24030287	    -11.79954479	    -37.36835143	      3.93892745	      1.01952569	      1.31725453	      5.21951272	      0.36502208	    -10.73448629	     20.76122953	      4.64179846	     11.46213162	      0.00000000	     10.76479149	      0.76502255	     -3.82548636	     27.58608318	      8.92556335	    -10.17172473	      0.00000000	     -9.18919474	     -0.51306029	      2.14395675	     12.00006093	    -12.84480429	     19.28833447	     92.68201101	    119.74817918	     -5.13975908	    -20.11029927	     19.29385422	     98.65735196	    119.74817918
      6.11666670	      7.17614154	    -12.33370536	    -37.65604227	      3.93805928	      1.02099999	      1.31622857	      5.64659453	      0.45962590	    -11.80506379	     22.05507454	      3.88834852	     11.46863831	      0.00000000	     10.74714663	      0.25280400	     -3.81494006	     28.00328184	      8.67764761	    -10.32956207	      0.00000000	     -9.93228524	     -0.11137440	      2.35345372	     12.45448340	    -12.50928313	     18.78778775	     91.86055610	    119.74817918	     -4.58661102	    -19.81518843	     19.09998767	     98.18240480	    119.74817918
      6.13333330	      6.46361601	    -12.86833300	    -37.04116799	      3.93982043	      1.02115796	      1.31448262	      6.32522997	      0.50628555	    -14.70242021	     23.43077720	      4.20795512	     12.97872721	      0.00000000	     11.41468085	     -0.34012206	     -2.42042192	     28.67182255	      8.60755496	    -11.19198988	      0.00000000	     -9.73116917	      1.05196949	      1.93854461	     12.22703581	    -12.59644818	     18.33559481	     91.94009423	    119.74817918	     -3.85008463	    -19.39439970	     19.72164706	     97.30354977	    119.74817918
      6.15000000	      6.15117124	    -13.54749886	    -36.32086480	      3.94247020	      1.02192457	      1.31288407	      6.35001843	      0.62291881	    -16.58606255	     24.46609145	      5.38874029	     12.70811171	      0.00000000	     11.41748226	     -0.83864283	     -1.29145063	     29.02099189	      8.98962015	    -11.48367701	      0.00000000	     -9.86342760	      2.23398557	      1.34246091	     12.24545555	    -13.09736372	     18.78590489	     91.74324596	    119.74817918	     -3.24598495	    -18.81257635	     19.88242406	     96.55371098	    119.74817918
      6.16666670	      6.11288740	    -13.70390964	    -35.89169806	      3.94419662	      1.02218969	      1.31299916	      6.33631607	      0.77052718	    -16.65748089	     25.04825260	      6.55137054	     12.23545139	      0.00000000	     11.14826275	     -0.96681290	     -1.23608146	     28.72108361	      8.77581196	    -11.40957273	      0.00000000	     -9.73916453	      2.56152207	      1.10597210	     12.10673925	    -13.14239003	     18.97020391	     91.59409083	    119.74817918	     -2.79604339	    -18.67086300	     20.04213821	     96.27401345	    119.74817918
      6.18333330	      6.21506943	    -13.82015688	    -34.93854361	      3.94748607	      1.02244052	      1.31278523	      6.12507487	      0.92243611	    -16.52649847	     25.48462246	      8.28048966	     11.71432458	      0.00000000	     10.84433355	     -0.74510791	     -0.36869716	     28.58249729	      8.62070604	    -11.67582168	      0.00000000	     -9.52763908	      2.84473593	      0.76758463	     11.29050684	    -13.38365299	     19.00616069	     91.51880230	    119.74817918	     -1.96739323	    -18.43648788	     20.45138574	     95.93396661	    119.74817918
      6.20000000	      6.10988415	    -14.03892291	    -34.47552019	      3.95105107	      1.02277366	      1.31352637	      5.92595845	      1.32743465	    -16.42747630	     25.67009121	      9.64508975	     11.22828897	      0.00000000	     10.44092938	     -0.95011337	     -0.47021559	     28.19896704	      8.43431562	    -11.76301695	      0.00000000	     -9.08658991	      3.37332465	      0.68860977	     10.41669556	    -13.74643101	     19.02168539	     91.31932891	    119.74817918	     -1.76121126	    -18.07066257	     20.18363013	     95.91934828	    119.74817918
      6.21666670	      6.02638832	    -14.44243627	    -33.79005135	      3.95456178	      1.02322331	      1.31444886	      5.33667348	      2.13971960	    -15.71814449	     25.22130393	     10.31118273	     10.16627684	      0.00000000	      9.70165128	     -1.17488861	      0.30990872	     27.37881847	      8.00284480	    -12.11512648	      0.00000000	     -8.72328723	      4.06026290	      0.82927129	      9.11880775	    -14.04495330	     18.41286123	     91.71461714	    119.74817918	     -1.20956002	    -17.56029837	     19.79325425	     95.88761986	    119.74817918
      6.23333330	      5.73086365	    -14.52681229	    -33.53370908	      3.95802219	      1.02295449	      1.31619543	      5.19615299	      2.52271554	    -15.56959524	     25.00939789	     10.47112725	      9.98789905	      0.00000000	      9.29212084	     -1.42115979	      0.71919047	     26.52055978	      6.80539479	    -11.39478261	      0.00000000	     -7.95651354	      4.49596579	      1.02288281	      8.10681889	    -14.45477826	     18.39568422	     91.64432726	    119.74817918	     -1.09762379	    -17.39800144	     19.33861780	     96.12394633	    119.74817918
      6.25000000	      5.93188653	    -14.43808817	    -33.16126724	      3.96140063	      1.02370541	      1.31743623	      4.82809025	      2.34607433	    -15.57487946	     25.03107942	     10.87416135	      9.55658366	      0.00000000	      8.64707319	     -1.16134230	      0.86079155	     26.19517515	      9.62606405	    -12.34820867	      0.00000000	     -7.61889323	      4.47055587	      1.14256589	      7.14721315	    -14.73714477	     18.38790463	     91.68345798	    119.74817918	     -0.75452264	    -17.32062704	     18.87700765	     96.40533074	    119.74817918
      6.26666670	      6.42178462	    -14.76920308	    -32.56707997	      3.96552818	      1.02514819	      1.31938735	      3.57985494	      2.49229964	    -15.71175586	     24.45870520	     10.86936388	      9.25190621	      0.00000000	      7.59970561	     -1.36013598	      0.69422457	     26.29651760	     12.76503319	     -9.05840296	      0.00000000	     -7.66180217	      4.57698648	      1.27151629	      5.84024558	    -14.79792516	     17.86285321	     91.73269116	    119.74817918	     -0.38762134	    -17.19962761	     18.57780539	     96.70554929	    119.74817918
      6.28333330	      6.53035014	    -14.56648398	    -32.38951780	      3.96966656	      1.02554625	      1.32079168	      3.26880428	      2.30408268	    -15.32024173	     24.36499474	     11.24810624	      8.95167198	      0.00000000	      7.05013501	     -0.99364877	      1.35532864	     26.02691323	     14.27371051	     -7.93071151	      0.00000000	     -7.01722017	      4.54813325	      1.42803350	      4.76739051	    -15.40805099	     18.10766236	     91.96141323	    119.74817918	     -0.25315695	    -16.69819578	     17.94654581	     96.87789629	    119.74817918
      6.30000000	      6.94963457	    -14.83904746	    -32.22869615	      3.97294851	      1.02704417	      1.32293592	      2.13462962	      2.58685673	    -14.80761503	     23.64648635	     11.08252291	      8.12389200	      0.00000000	      6.08501497	     -1.47084872	      0.03673928	     26.07636345	     17.17337950	     -3.82829087	      0.00000000	     -7.02288707	      4.58780162	      1.70969500	      3.87119201	    -15.85111256	     18.28144555	     91.86410675	    119.74817918	     -0.01938714	    -16.41942610	     17.45261980	     97.44782641	    119.74817918
      6.31666670	      7.04105582	    -14.70300088	    -32.14586671	      3.97524574	      1.02745639	      1.32341570	      1.97017664	      2.45173779	    -14.48135771	     23.59568812	     11.22513099	      7.77701072	      0.00000000	      5.64482859	     -1.24192004	      0.77615493	     25.71609468	     17.90743813	     -3.42970006	      0.00000000	     -6.59841913	      4.56788490	      2.01640341	      3.17560109	    -16.37484922	     18.61001148	     91.85725035	    119.74817918	      0.43753247	    -15.96141853	     16.96798085	     97.61238452	    119.74817918
